<svg xmlns="http://www.w3.org/2000/svg" xmlns:xlink="http://www.w3.org/1999/xlink" width="500" zoomAndPan="magnify" viewBox="0 0 375 374.999991" height="500" preserveAspectRatio="xMidYMid meet" version="1.0"><defs><g/><clipPath id="78caaf9e31"><path d="M 126.019531 54 L 249.019531 54 L 249.019531 290.542969 L 126.019531 290.542969 Z M 126.019531 54 " clip-rule="nonzero"/></clipPath></defs><rect x="-37.5" width="450" fill="#ffffff" y="-37.499999" height="449.999989" fill-opacity="1"/><rect x="-37.5" width="450" fill="#ffffff" y="-37.499999" height="449.999989" fill-opacity="1"/><rect x="-37.5" width="450" fill="#ffffff" y="-37.499999" height="449.999989" fill-opacity="1"/><path fill="#05103a" d="M 187.5 0 C 83.945312 0 0 83.945312 0 187.5 C 0 291.054688 83.945312 375 187.5 375 C 291.054688 375 375 291.054688 375 187.5 C 375 83.945312 291.054688 0 187.5 0 " fill-opacity="1" fill-rule="nonzero"/><g fill="#fff9f3" fill-opacity="1"><g transform="translate(74.520771, 365.550504)"><g><path d="M 198.796875 -252.289062 C 198.796875 -256.289062 196.691406 -258.394531 192.269531 -258.394531 C 188.269531 -258.394531 186.375 -256.289062 186.375 -252.289062 L 186.375 -131.832031 C 186.375 -90.132812 154.152344 -58.964844 112.246094 -58.964844 C 70.757812 -58.964844 37.90625 -90.554688 37.90625 -131.832031 L 37.90625 -252.289062 C 37.90625 -256.289062 36.011719 -258.394531 32.011719 -258.394531 C 27.585938 -258.394531 25.480469 -256.289062 25.480469 -252.289062 L 25.480469 -133.09375 C 25.480469 -85.710938 62.335938 -47.171875 112.246094 -47.171875 C 161.3125 -47.171875 198.796875 -85.5 198.796875 -133.304688 Z M 198.796875 -252.289062 "/></g></g></g><g clip-path="url(#78caaf9e31)"><path fill="#32b2ff" d="M 191.957031 58.722656 C 192.21875 56.757812 191.023438 54.890625 189.128906 54.296875 C 187.234375 53.714844 185.195312 54.582031 184.300781 56.351562 C 173.621094 77.488281 126.4375 177.328125 126.4375 229.152344 C 126.4375 263.027344 153.988281 290.542969 187.925781 290.542969 C 221.867188 290.542969 249.414062 263.027344 249.414062 229.152344 C 249.414062 197.933594 227.101562 153.164062 210.011719 115.511719 C 203.371094 100.863281 197.558594 87.316406 194.339844 76.140625 C 192.355469 69.234375 191.339844 63.316406 191.957031 58.722656 Z M 185.164062 73.113281 C 168.832031 107.46875 134.566406 185.589844 134.566406 229.152344 C 134.566406 258.558594 158.476562 282.425781 187.925781 282.425781 C 217.378906 282.425781 241.285156 258.558594 241.285156 229.152344 C 241.285156 198.8125 219.214844 155.453125 202.609375 118.855469 C 195.78125 103.808594 189.835938 89.871094 186.527344 78.378906 C 186.007812 76.5625 185.554688 74.808594 185.164062 73.113281 Z M 185.164062 73.113281 " fill-opacity="1" fill-rule="evenodd"/></g><path fill="#32b2ff" d="M 190.675781 202 L 171.667969 202 C 170.171875 202 168.789062 201.171875 168.082031 199.859375 C 167.375 198.535156 167.457031 196.9375 168.285156 195.6875 L 190.488281 162.484375 C 191.730469 160.625 194.257812 160.121094 196.121094 161.363281 C 197.992188 162.605469 198.496094 165.128906 197.25 166.996094 L 179.269531 193.886719 L 198.273438 193.886719 C 199.769531 193.886719 201.152344 194.703125 201.859375 196.027344 C 202.566406 197.351562 202.484375 198.949219 201.65625 200.191406 L 175.050781 240.035156 C 173.804688 241.902344 171.277344 242.40625 169.417969 241.164062 C 167.546875 239.921875 167.042969 237.398438 168.285156 235.539062 Z M 190.675781 202 " fill-opacity="1" fill-rule="evenodd"/></svg>