<svg id="Layer_1" data-name="Layer 1" xmlns="http://www.w3.org/2000/svg" viewBox="0 0 85 85"><path d="M23.5,28.27V41.73A21.68,21.68,0,0,0,38,61.93l2,.73a5.85,5.85,0,0,0,4.08,0l2-.73A21.68,21.68,0,0,0,60.5,41.73V28.27a2.7,2.7,0,0,0-1.65-2.48A42.89,42.89,0,0,0,42,22.5a42.89,42.89,0,0,0-16.85,3.29A2.7,2.7,0,0,0,23.5,28.27Z" fill="none" stroke="#00a0da" stroke-linecap="round" stroke-linejoin="round" stroke-width="1.75"/><path d="M46,37.3c-2-3.84-4.33-7.42-4.33-7.42S34.54,40.79,34.54,45a7.34,7.34,0,0,0,7.11,7.54A7.34,7.34,0,0,0,48.77,45a5,5,0,0,0-.1-1" fill="none" stroke="#00a0da" stroke-linecap="round" stroke-linejoin="round" stroke-width="1.75"/><path d="M38.72,42.27l3.69,3.52L53.8,34.91" fill="none" stroke="#00a0da" stroke-width="1.75"/></svg>