<svg id="Layer_1" data-name="Layer 1" xmlns="http://www.w3.org/2000/svg" viewBox="0 0 85 85"><path d="M37.38,19.5v2" fill="none" stroke="#00a0da" stroke-linecap="round" stroke-linejoin="round" stroke-width="1.75"/><path d="M23.47,23.48l2,2" fill="none" stroke="#00a0da" stroke-linecap="round" stroke-linejoin="round" stroke-width="1.75"/><path d="M51.29,23.48l-2,2" fill="none" stroke="#00a0da" stroke-linecap="round" stroke-linejoin="round" stroke-width="1.75"/><path d="M19.5,37.38h2" fill="none" stroke="#00a0da" stroke-linecap="round" stroke-linejoin="round" stroke-width="1.75"/><path d="M46.29,29.48a11.92,11.92,0,0,0-20.83,7.9,11.45,11.45,0,0,0,.67,3.89" fill="none" stroke="#00a0da" stroke-linecap="round" stroke-linejoin="round" stroke-width="1.75"/><path d="M33.12,37.89a1,1,0,0,1,.87-.51H54.68a1,1,0,0,1,.87.51l8.82,15.9a1,1,0,0,1,0,1,1,1,0,0,1-.85.49H25.16a1,1,0,0,1-.85-.49,1,1,0,0,1,0-1Z" fill="none" stroke="#00a0da" stroke-linecap="round" stroke-linejoin="round" stroke-width="1.75"/><path d="M41.35,55.26V65.2" fill="none" stroke="#00a0da" stroke-linecap="round" stroke-linejoin="round" stroke-width="1.75"/><path d="M47.31,65.2V55.26" fill="none" stroke="#00a0da" stroke-linecap="round" stroke-linejoin="round" stroke-width="1.75"/><path d="M40.36,37.38l-4,17.88" fill="none" stroke="#00a0da" stroke-linecap="round" stroke-linejoin="round" stroke-width="1.75"/><path d="M48.31,37.38l4,17.88" fill="none" stroke="#00a0da" stroke-linecap="round" stroke-linejoin="round" stroke-width="1.75"/><path d="M30.1,43.34H58.57" fill="none" stroke="#00a0da" stroke-linecap="round" stroke-linejoin="round" stroke-width="1.75"/><path d="M26.78,49.3h35.1" fill="none" stroke="#00a0da" stroke-linecap="round" stroke-linejoin="round" stroke-width="1.75"/></svg>